<svg width="56" height="56" fill="none" xmlns="http://www.w3.org/2000/svg"><g clip-path="url(#a)"><mask id="b" style="mask-type:luminance" maskUnits="userSpaceOnUse" x="0" y="0" width="56" height="56"><path d="M0 0h56v56H0V0Z" fill="#fff"/></mask><g mask="url(#b)"><path d="M28 0c15.464 0 28 12.536 28 28S43.464 56 28 56 0 43.464 0 28 12.536 0 28 0Z" fill="url(#c)"/><path d="m20.755 24.992 4.24-4.225.893-.894 2.12-2.119 7.214 7.238 4.2-4.225L28.007 9.333 16.555 20.767l4.2 4.225Z" fill="#fff"/><path d="m23.795 27.993 4.218-4.217 4.217 4.217-4.217 4.217-4.218-4.217Z" fill="#fff"/><path d="m35.222 31.017-7.217 7.217L25.47 35.7l-.467-.467-4.249-4.216-4.2 4.2L28.007 46.65l11.415-11.433-4.2-4.2ZM9.334 28.005l4.217-4.217 4.217 4.217-4.217 4.217-4.217-4.217ZM38.234 28.002l4.217-4.217 4.217 4.217-4.217 4.218-4.217-4.218Z" fill="#fff"/></g></g><defs><linearGradient id="c" x1="44.156" y1="63.419" x2="1.591" y2="-8.662" gradientUnits="userSpaceOnUse"><stop stop-color="#E9B204"/><stop offset="1" stop-color="#F0B90B"/></linearGradient><clipPath id="a"><path fill="#fff" d="M0 0h56v56H0z"/></clipPath></defs></svg>