<svg width="97" height="96" fill="none" xmlns="http://www.w3.org/2000/svg"><rect x=".143" width="96" height="96" rx="48" fill="url(#a)"/><g fill="#fff"><path d="M71.264 41.09c1.053-7.048-4.315-10.835-11.66-13.364l2.379-9.551-5.811-1.448-2.316 9.297c-1.526-.38-3.096-.74-4.655-1.094l2.332-9.359-5.811-1.447-2.382 9.542c-1.264-.289-2.508-.572-3.713-.872l.007-.03-8.015-2-1.546 6.209s4.314.987 4.22 1.047c2.357.587 2.782 2.143 2.71 3.378l-2.71 10.88c.164.041.371.102.602.194l-.613-.153-3.801 15.242c-.288.714-1.018 1.786-2.664 1.38.058.084-4.223-1.052-4.223-1.052l-2.885 6.653 7.567 1.885c1.407.35 2.787.72 4.142 1.067l-2.402 9.66 5.806 1.446 2.381-9.556c1.583.43 3.122.826 4.632 1.202l-2.374 9.51 5.811 1.447 2.401-9.638c9.911 1.875 17.372 1.118 20.505-7.849 2.528-7.218-.124-11.385-5.34-14.1 3.802-.869 6.665-3.365 7.426-8.526ZM57.985 59.715c-1.797 7.216-13.952 3.32-17.896 2.337l3.19-12.8c3.941.99 16.58 2.938 14.706 10.463Zm1.792-18.73c-1.636 6.567-11.758 3.229-15.041 2.415l2.89-11.603c3.286.818 13.86 2.343 12.151 9.188Z"/><path d="m34.366 42.025.863.215-.158.638-.864-.215.159-.638Z"/></g><defs><linearGradient id="a" x1="-16.439" y1="163.2" x2="78.688" y2="0" gradientUnits="userSpaceOnUse"><stop stop-color="#FF930F"/><stop offset="1" stop-color="#FBC411"/></linearGradient></defs></svg>