<svg width="97" height="96" fill="none" xmlns="http://www.w3.org/2000/svg"><rect x=".4" width="96" height="96" rx="48" fill="url(#a)"/><path fill-rule="evenodd" clip-rule="evenodd" d="M13.366 41.92c-.16 0-.2-.081-.12-.201l.844-1.085c.08-.121.28-.201.441-.201h14.345c.16 0 .2.12.12.241l-.682 1.045c-.08.12-.282.24-.402.24l-14.546-.04ZM7.3 45.616c-.16 0-.201-.08-.12-.201l.843-1.085c.08-.12.281-.2.442-.2h18.322c.16 0 .241.12.201.24l-.321.965c-.04.16-.201.241-.362.241l-19.005.04Zm9.723 3.697c-.16 0-.2-.121-.12-.242l.562-1.004c.081-.12.242-.24.403-.24h8.035c.16 0 .241.12.241.28l-.08.964c0 .161-.16.282-.281.282l-8.76-.04Zm41.707-8.117c-2.532.644-4.26 1.126-6.75 1.768-.603.161-.643.2-1.166-.402-.602-.683-1.044-1.125-1.888-1.527-2.532-1.245-4.983-.883-7.272.604-2.733 1.767-4.139 4.379-4.099 7.633.04 3.215 2.25 5.867 5.424 6.309 2.733.361 5.023-.603 6.831-2.652.361-.442.683-.924 1.085-1.487h-7.755c-.843 0-1.044-.523-.763-1.205.522-1.246 1.486-3.335 2.048-4.38.122-.241.403-.643 1.005-.643h14.625c-.08 1.085-.08 2.17-.24 3.255-.442 2.893-1.527 5.545-3.295 7.875-2.893 3.817-6.67 6.187-11.452 6.83-3.937.523-7.593-.24-10.807-2.651-2.974-2.25-4.66-5.224-5.103-8.92-.523-4.38.763-8.318 3.415-11.773 2.853-3.736 6.63-6.107 11.25-6.951 3.777-.683 7.393-.24 10.648 1.969 2.13 1.406 3.656 3.335 4.66 5.665.242.362.081.563-.401.683Z" fill="#fff"/><path d="M72.029 63.416c-3.656-.081-6.992-1.125-9.804-3.536-2.371-2.049-3.857-4.661-4.34-7.755-.723-4.54.522-8.558 3.255-12.134 2.933-3.858 6.469-5.866 11.25-6.71 4.099-.723 7.956-.321 11.451 2.049 3.175 2.17 5.143 5.103 5.666 8.96.682 5.424-.884 9.844-4.621 13.621-2.652 2.692-5.907 4.38-9.643 5.143-1.085.2-2.17.241-3.214.362Zm9.562-16.233c-.04-.522-.04-.924-.12-1.326-.723-3.978-4.38-6.228-8.197-5.343-3.737.843-6.147 3.214-7.031 6.99-.723 3.135.803 6.309 3.696 7.594 2.21.965 4.42.844 6.55-.24 3.174-1.648 4.901-4.22 5.102-7.675Z" fill="#fff"/><defs><linearGradient id="a" x1="11" y1="4" x2="75.5" y2="96" gradientUnits="userSpaceOnUse"><stop stop-color="#00ACD7"/><stop offset="1" stop-color="#00A8D3"/></linearGradient></defs></svg>