<svg width="97" height="96" fill="none" xmlns="http://www.w3.org/2000/svg"><rect x=".6" width="96" height="96" rx="48" fill="url(#a)"/><path d="m79.082 26.959-27.56-16.003c-1.739-.99-4.002-.99-5.754 0L17.913 26.959c-1.794 1.032-3.063 2.971-3.063 5.045v31.964c0 2.075 1.303 4.014 3.096 5.052l7.36 4.18c3.517 1.733 4.76 1.733 6.36 1.733 5.209 0 8.184-3.15 8.184-8.643V34.734c0-.446-.232-1.109-.67-1.109h-3.514c-.445 0-1.441.663-1.441 1.108V66.29c0 2.435-2.203 4.858-6.319 2.8l-7.604-4.383a.863.863 0 0 1-.452-.738V32.004c0-.3.347-.603.614-.758l27.765-15.975a.973.973 0 0 1 .9 0l27.425 15.971c.263.159.17.452.17.762v31.964c0 .305.115.602-.145.749L49.026 80.702a.782.782 0 0 1-.789 0l-7.066-4.218c-.213-.124-.467-.168-.671-.054-1.966 1.114-2.329 1.262-4.173 1.902-.454.158-1.123.432.256 1.206l9.249 5.47a5.81 5.81 0 0 0 2.904.78 5.816 5.816 0 0 0 2.917-.78L79.081 69.02c1.794-1.045 2.644-2.977 2.644-5.052V32.004c0-2.074-.85-4.008-2.643-5.045ZM57.294 58.903c-7.329 0-8.943-2.022-9.481-5.666-.063-.393-.396-.862-.796-.862h-3.581c-.444 0-.8.538-.8.979 0 4.666 2.537 10.32 14.658 10.32 8.775 0 13.805-3.41 13.805-9.443 0-5.983-4.041-7.553-12.55-8.68-8.602-1.136-9.476-1.71-9.476-3.725 0-1.662.74-3.877 7.109-3.877 5.69 0 7.788 1.221 8.651 5.057.074.36.403.619.775.619h3.596c.222 0 .433-.09.588-.248.15-.17.23-.383.21-.611-.558-6.605-4.946-9.683-13.82-9.683-7.895 0-12.605 3.333-12.605 8.921 0 6.062 4.686 7.737 12.264 8.486 9.066.889 9.77 2.214 9.77 3.997 0 3.097-2.485 4.416-8.317 4.416Z" fill="#fff"/><defs><linearGradient id="a" x1="1" y1="4" x2="89" y2="102.5" gradientUnits="userSpaceOnUse"><stop stop-color="#83CD29"/><stop offset="1" stop-color="#74BE1A"/></linearGradient></defs></svg>