<svg width="97" height="96" fill="none" xmlns="http://www.w3.org/2000/svg"><rect x=".8" width="96" height="96" rx="48" fill="url(#a)"/><path d="M16.087 61.13a2.488 2.488 0 0 1-1.791-.696 2.364 2.364 0 0 1 0-3.446 2.488 2.488 0 0 1 1.79-.722 2.487 2.487 0 0 1 1.805.722 2.338 2.338 0 0 1 0 3.446 2.487 2.487 0 0 1-1.804.697Zm28.128-.398h-4.578L27.594 41.723a8.43 8.43 0 0 1-.758-1.493h-.112c.132 1.177.181 2.362.149 3.546v16.956h-4.056V34.868h4.877L39.401 53.43c.497.771.808 1.244.958 1.592h.062a24.486 24.486 0 0 1-.174-3.483v-16.67h4.03l-.062 25.863Zm19.706 0H49.764V34.868H63.36v3.645h-9.417v7.328h8.708v3.62h-8.708v7.651h9.952l.025 3.62ZM84.05 38.514h-7.253v22.218h-4.192V38.514h-7.228v-3.646h18.66l.013 3.645Z" fill="#fff"/><defs><linearGradient id="a" x1="13" y1="3" x2="73.5" y2="96" gradientUnits="userSpaceOnUse"><stop stop-color="#6B3FA0"/><stop offset="1" stop-color="#552D85"/></linearGradient></defs></svg>