<svg width="96" height="96" fill="none" xmlns="http://www.w3.org/2000/svg"><rect width="96" height="96" rx="48" fill="url(#a)"/><path d="M35.51 52.74c-1.145 1.07-2.417 1.513-3.818 1.969-1.401.456-3.184.362-5.352.362h-4.912l-1.362 7.857H14.33l5.119-26.713h11.03c3.32 0 5.74.954 7.262 2.696 1.522 1.742 1.979 4.215 1.372 7.336-.25 1.286-.672 2.482-1.268 3.547a11.879 11.879 0 0 1-2.335 2.945Zm16.744 2.331 2.263-11.33c.258-1.326.164-2.31-.284-2.792-.447-.483-1.4-.806-2.855-.806h-4.55l-2.93 14.928h-5.692l5.118-25.927h5.692l-1.36 7.07h5.069c3.19 0 5.39.641 6.601 1.754 1.211 1.112 1.574 2.636 1.09 5.129L58.035 55.07h-5.781Zm31.63-8.782a11.788 11.788 0 0 1-1.267 3.526 11.749 11.749 0 0 1-2.334 2.924c-1.146 1.072-2.419 1.514-3.819 1.97-1.4.456-3.184.362-5.352.362H66.2l-1.36 7.857h-5.737l5.118-26.713h11.032c3.319 0 5.74.954 7.26 2.696 1.52 1.742 1.979 4.257 1.372 7.378Zm-10.806-6.146h-3.93l-2.142 11h3.49c2.312 0 4.035-.228 5.167-1.1 1.133-.87 1.896-2.222 2.292-4.26.38-1.956.208-3.483-.518-4.288-.727-.804-2.18-1.352-4.36-1.352Zm-44.772 0h-3.93l-2.142 11h3.489c2.312 0 4.035-.228 5.167-1.1 1.133-.87 1.896-2.222 2.292-4.26.38-1.956.208-3.483-.518-4.288-.726-.804-2.178-1.352-4.358-1.352Z" fill="#fff"/><defs><linearGradient id="a" x1="9.5" y1="4" x2="78" y2="100" gradientUnits="userSpaceOnUse"><stop stop-color="#6181B6"/><stop offset="1" stop-color="#5979AE"/></linearGradient></defs></svg>