<svg width="97" height="96" fill="none" xmlns="http://www.w3.org/2000/svg"><rect x=".2" width="96" height="96" rx="48" fill="url(#a)"/><path d="M47.846 17.92c-2.454.01-4.796.22-6.859.584-6.074 1.073-7.176 3.32-7.176 7.462v5.47h14.353v1.824h-19.74c-4.171 0-7.824 2.507-8.966 7.278-1.319 5.466-1.377 8.878 0 14.587 1.02 4.25 3.456 7.276 7.628 7.276h4.935v-6.557c0-4.738 4.099-8.917 8.967-8.917h14.336c3.991 0 7.177-3.286 7.177-7.293V25.967c0-3.89-3.282-6.813-7.177-7.462a44.824 44.824 0 0 0-7.478-.586Zm-7.762 4.399c1.482 0 2.694 1.23 2.694 2.744 0 1.507-1.211 2.726-2.694 2.726-1.488 0-2.693-1.219-2.693-2.726 0-1.514 1.205-2.744 2.693-2.744Z" fill="#386F9F"/><path d="M64.29 33.26v6.373c0 4.941-4.19 9.1-8.966 9.1H40.987c-3.927 0-7.176 3.361-7.176 7.294v13.668c0 3.89 3.382 6.178 7.176 7.293 4.543 1.335 8.9 1.577 14.337 0 3.613-1.047 7.176-3.152 7.176-7.293v-5.47H48.164V62.4h21.513c4.171 0 5.727-2.91 7.178-7.277 1.498-4.496 1.433-8.82 0-14.587-1.032-4.153-3-7.278-7.178-7.278H64.29ZM56.226 67.87c1.49 0 2.694 1.22 2.694 2.728 0 1.512-1.206 2.742-2.694 2.742-1.482 0-2.693-1.23-2.693-2.742 0-1.509 1.211-2.728 2.694-2.728Z" fill="#FFCF46"/><defs><linearGradient id="a" x1="0" y1="1.5" x2="80.5" y2="103.5" gradientUnits="userSpaceOnUse"><stop stop-color="#242429"/><stop offset="1" stop-color="#18181D"/></linearGradient></defs></svg>