<svg width="404" height="199" fill="none" xmlns="http://www.w3.org/2000/svg"><rect width="403.353" height="198.353" rx="20" fill="#0D0D12"/><path d="M25.58 36.676H18.9v-1.38h2.566v-9.922H18.9v-1.38h6.68v1.38h-2.567v9.923h2.567v1.38Zm3.289 0V27.14H30.3v1.68h.123c.51-1.187 1.6-1.855 3.05-1.855 2.075 0 3.2 1.239 3.2 3.524v6.187h-1.495v-5.81c0-1.722-.703-2.53-2.188-2.53-1.573 0-2.628 1.098-2.628 2.724v5.616h-1.494Zm10.127-9.536h1.6l2.663 7.937h.114l2.645-7.937h1.591l-3.48 9.536h-1.644l-3.49-9.536Zm14.838 9.712c-2.523 0-4.131-1.643-4.131-4.218v-1.442c0-2.575 1.608-4.219 4.13-4.219 2.523 0 4.132 1.644 4.132 4.22v1.44c0 2.576-1.609 4.22-4.131 4.22Zm0-8.56c-1.635 0-2.655 1.16-2.655 3.032v1.169c0 1.88 1.02 3.032 2.655 3.032 1.635 0 2.654-1.151 2.654-3.032v-1.169c0-1.872-1.02-3.032-2.654-3.032Zm10.698-3.49c-.703 0-1.24-.527-1.24-1.23 0-.694.537-1.222 1.24-1.222s1.24.528 1.24 1.222c0 .703-.537 1.23-1.24 1.23Zm4 11.874H60.63v-1.239h3.27V28.38h-3.244v-1.24h4.72v8.297h3.155v1.24Zm10.337-6.565h-1.476c-.185-1.116-1.117-1.82-2.347-1.82-1.661 0-2.584 1.134-2.584 3.182v.862c0 2.048.923 3.173 2.584 3.173 1.23 0 2.162-.695 2.347-1.785h1.476c-.237 1.943-1.687 3.13-3.797 3.13-2.592 0-4.104-1.592-4.104-4.325V31.28c0-2.733 1.512-4.324 4.104-4.324 2.11 0 3.551 1.195 3.797 3.155Zm9.134 4.105h1.45c-.29 1.573-1.801 2.636-3.805 2.636-2.62 0-4.14-1.573-4.14-4.289v-1.432c0-2.514 1.608-4.166 4.034-4.166 2.479 0 3.938 1.643 3.938 4.403v.932h-6.495v.386c0 1.75 1.037 2.874 2.663 2.874 1.204 0 2.092-.51 2.355-1.344Zm-2.47-5.968c-1.59 0-2.548 1.09-2.548 2.918h5.018c0-1.82-.931-2.918-2.47-2.918ZM54.431 53.982c2.207 0 3.648 1.591 3.648 4.043v1.776c0 2.443-1.441 4.034-3.648 4.034-1.38 0-2.39-.59-2.803-1.635h-.167v4.693h-1.52V54.14h1.476v1.46h.158c.501-1.055 1.494-1.618 2.856-1.618Zm-.43 1.371c-1.573 0-2.575 1.125-2.575 2.883v1.371c0 1.767 1.002 2.892 2.575 2.892 1.573 0 2.575-1.134 2.575-2.892v-1.37c0-1.759-1.002-2.884-2.575-2.884Zm9.397 8.49c-1.819 0-3.032-1.142-3.032-2.874 0-1.687 1.213-2.689 3.384-2.803l2.62-.132v-.861c0-1.196-.73-1.855-2.058-1.855-1.098 0-1.872.466-2.118 1.283h-1.468c.176-1.529 1.653-2.575 3.604-2.575 2.241 0 3.525 1.143 3.525 3.129v6.53H66.43v-1.432h-.15c-.457 1.02-1.494 1.59-2.883 1.59Zm.431-1.31c1.441 0 2.54-.957 2.54-2.232v-1.125l-2.452.115c-1.336.061-2.04.633-2.04 1.626 0 1.002.748 1.617 1.952 1.617Zm8.396 4.536c-.22 0-.51-.009-.642-.026v-1.31c.114.026.387.035.527.035.897 0 1.39-.404 1.785-1.511l.167-.519-3.507-9.598h1.626l2.672 7.98h.114l2.663-7.98h1.59l-3.594 9.888c-.835 2.347-1.635 3.041-3.401 3.041Zm17.369-3.393h-7.901v-1.239h3.26V51.636H81.72v-1.24h4.729v12.041h3.146v1.24Zm6.365.176c-2.522 0-4.13-1.643-4.13-4.218v-1.442c0-2.575 1.608-4.219 4.13-4.219 2.523 0 4.131 1.644 4.131 4.22v1.44c0 2.576-1.608 4.22-4.13 4.22Zm0-8.56c-1.635 0-2.654 1.16-2.654 3.032v1.169c0 1.88 1.02 3.032 2.654 3.032 1.635 0 2.655-1.151 2.655-3.032v-1.169c0-1.872-1.02-3.032-2.655-3.032Zm9.565 8.551c-1.819 0-3.032-1.142-3.032-2.874 0-1.687 1.213-2.689 3.383-2.803l2.62-.132v-.861c0-1.196-.73-1.855-2.057-1.855-1.099 0-1.872.466-2.118 1.283h-1.468c.176-1.529 1.652-2.575 3.604-2.575 2.241 0 3.524 1.143 3.524 3.129v6.53h-1.424v-1.432h-.149c-.457 1.02-1.494 1.59-2.883 1.59Zm.431-1.31c1.441 0 2.54-.957 2.54-2.232v-1.125l-2.453.115c-1.336.061-2.039.633-2.039 1.626 0 1.002.747 1.617 1.952 1.617Zm10.469 1.302c-2.206 0-3.647-1.591-3.647-4.043v-1.776c0-2.443 1.441-4.034 3.647-4.034 1.38 0 2.4.589 2.813 1.635h.158v-5.22h1.521v13.28h-1.468v-1.46h-.167c-.492 1.055-1.494 1.618-2.857 1.618Zm.44-1.363c1.564 0 2.575-1.125 2.575-2.891V58.21c0-1.758-1.011-2.883-2.575-2.883-1.573 0-2.584 1.125-2.584 2.883v1.37c0 1.759 1.011 2.892 2.584 2.892Zm10.689-5.493c-.87 0-1.59-.738-1.59-1.626 0-.887.72-1.626 1.59-1.626.871 0 1.591.739 1.591 1.626 0 .888-.72 1.626-1.591 1.626Zm0 6.75c-.87 0-1.59-.73-1.59-1.626 0-.887.72-1.617 1.59-1.617.871 0 1.591.73 1.591 1.617 0 .897-.72 1.626-1.591 1.626Zm-77.19 20.987c0-1.653 1.405-2.76 3.506-2.76 1.986 0 3.331.993 3.507 2.584h-1.442c-.175-.835-.975-1.345-2.091-1.345-1.213 0-1.996.563-1.996 1.433 0 .73.493 1.142 1.688 1.406l1.345.308c1.854.421 2.698 1.23 2.698 2.61 0 1.758-1.468 2.9-3.727 2.9-2.162 0-3.594-1.01-3.761-2.645h1.52c.22.879 1.064 1.389 2.294 1.389 1.3 0 2.127-.59 2.127-1.504 0-.755-.466-1.16-1.679-1.432l-1.415-.325c-1.722-.396-2.575-1.266-2.575-2.62Zm12.376-5.133h1.477v2.584h3.867v1.274h-3.85v5.38c0 1.036.73 1.599 2.075 1.599.536 0 1.494-.027 1.749-.053v1.266c-.238.044-1.398.088-1.855.088-2.364 0-3.463-.897-3.463-2.883V83.44H60.2v-1.274h2.54v-2.584Zm11.19 12.26c-1.819 0-3.032-1.142-3.032-2.874 0-1.687 1.213-2.689 3.384-2.803l2.62-.132v-.861c0-1.196-.73-1.855-2.057-1.855-1.099 0-1.872.466-2.118 1.283h-1.468c.176-1.529 1.652-2.575 3.603-2.575 2.242 0 3.525 1.143 3.525 3.129v6.53h-1.424v-1.432h-.15c-.456 1.02-1.494 1.59-2.882 1.59Zm.431-1.31c1.442 0 2.54-.957 2.54-2.231v-1.126l-2.452.115c-1.336.061-2.039.633-2.039 1.626 0 1.002.747 1.617 1.951 1.617Zm9.442-10.95h1.476v2.584h3.868v1.274h-3.85v5.38c0 1.036.73 1.599 2.074 1.599.536 0 1.495-.027 1.75-.053v1.266c-.238.044-1.398.088-1.855.088-2.364 0-3.463-.897-3.463-2.883V83.44h-2.54v-1.274h2.54v-2.584Zm16.06 2.557v9.537h-1.433v-1.68h-.123c-.51 1.187-1.6 1.855-3.05 1.855-2.074 0-3.199-1.239-3.199-3.524V82.14h1.494v5.81c0 1.723.703 2.531 2.189 2.531 1.573 0 2.628-1.098 2.628-2.724V82.14h1.494Zm3.157 2.576c0-1.653 1.406-2.76 3.507-2.76 1.986 0 3.331.993 3.507 2.584h-1.442c-.176-.835-.975-1.345-2.092-1.345-1.212 0-1.995.563-1.995 1.433 0 .73.493 1.142 1.688 1.406l1.345.308c1.854.421 2.698 1.23 2.698 2.61 0 1.758-1.468 2.9-3.727 2.9-2.162 0-3.594-1.01-3.761-2.645h1.52c.22.879 1.064 1.389 2.294 1.389 1.301 0 2.127-.59 2.127-1.504 0-.755-.466-1.16-1.679-1.432l-1.415-.325c-1.722-.396-2.575-1.266-2.575-2.62Zm14.003.263c-.87 0-1.591-.738-1.591-1.626 0-.887.721-1.626 1.591-1.626s1.591.739 1.591 1.626c0 .888-.721 1.626-1.591 1.626Zm0 6.75c-.87 0-1.591-.73-1.591-1.626 0-.887.721-1.617 1.591-1.617s1.591.73 1.591 1.617c0 .897-.721 1.626-1.591 1.626Zm-64.155 27.115c-1.82 0-3.032-1.143-3.032-2.875 0-1.687 1.213-2.689 3.384-2.803l2.619-.132v-.861c0-1.196-.73-1.855-2.057-1.855-1.099 0-1.872.466-2.118 1.283h-1.468c.176-1.529 1.652-2.575 3.604-2.575 2.24 0 3.524 1.143 3.524 3.129v6.53H55.9v-1.432h-.15c-.456 1.019-1.493 1.591-2.882 1.591Zm.43-1.31c1.442 0 2.54-.958 2.54-2.232v-1.125l-2.451.114c-1.336.061-2.04.633-2.04 1.626 0 1.002.748 1.617 1.952 1.617Zm15.665-5.88v7.023h-1.345v-6.583c0-1.161-.422-1.767-1.222-1.767-.834 0-1.344.729-1.344 1.916v6.434h-1.336v-6.592c0-1.152-.422-1.758-1.23-1.758-.844 0-1.372.729-1.372 1.916v6.434H59.77v-9.537h1.336v1.345h.158c.237-.958.922-1.52 1.819-1.52.896 0 1.53.553 1.731 1.494h.159c.246-.914 1.01-1.494 1.968-1.494 1.328 0 2.022.922 2.022 2.689Zm5.935 7.198c-2.523 0-4.131-1.643-4.131-4.218v-1.442c0-2.575 1.608-4.219 4.13-4.219 2.523 0 4.131 1.644 4.131 4.219v1.442c0 2.575-1.608 4.218-4.13 4.218Zm0-8.56c-1.635 0-2.655 1.16-2.655 3.032v1.169c0 1.881 1.02 3.032 2.655 3.032 1.634 0 2.654-1.151 2.654-3.032v-1.169c0-1.872-1.02-3.032-2.654-3.032Zm14.433-1.152v9.537h-1.432v-1.679h-.123c-.51 1.186-1.6 1.854-3.05 1.854-2.074 0-3.2-1.239-3.2-3.524v-6.188h1.495v5.81c0 1.723.703 2.531 2.188 2.531 1.573 0 2.628-1.098 2.628-2.724v-5.617h1.494Zm2.727 9.537v-9.537h1.433v1.679h.123c.51-1.186 1.6-1.854 3.05-1.854 2.074 0 3.199 1.239 3.199 3.524v6.188h-1.494v-5.81c0-1.723-.704-2.531-2.189-2.531-1.573 0-2.628 1.098-2.628 2.724v5.617h-1.494Zm12.808-12.094h1.476v2.584h3.867v1.274h-3.849v5.379c0 1.037.729 1.6 2.074 1.6.536 0 1.494-.027 1.749-.053v1.266c-.237.044-1.397.087-1.854.087-2.365 0-3.463-.896-3.463-2.882v-5.397h-2.54v-1.274h2.54v-2.584Zm12.157 5.396c-.87 0-1.591-.738-1.591-1.626 0-.887.721-1.626 1.591-1.626s1.591.739 1.591 1.626c0 .888-.721 1.626-1.591 1.626Zm0 6.75c-.87 0-1.591-.729-1.591-1.626 0-.887.721-1.617 1.591-1.617s1.591.73 1.591 1.617c0 .897-.721 1.626-1.591 1.626Zm-64.155 28.115c-1.82 0-3.032-1.143-3.032-2.875 0-1.687 1.213-2.689 3.384-2.803l2.619-.132v-.861c0-1.196-.73-1.855-2.057-1.855-1.099 0-1.872.466-2.118 1.283h-1.468c.176-1.529 1.652-2.575 3.604-2.575 2.24 0 3.524 1.143 3.524 3.129v6.53H55.9v-1.432h-.15c-.456 1.019-1.493 1.591-2.882 1.591Zm.43-1.31c1.442 0 2.54-.958 2.54-2.232v-1.125l-2.451.114c-1.336.061-2.04.633-2.04 1.626 0 1.002.748 1.617 1.952 1.617Zm7.597-5.818c0-1.653 1.406-2.76 3.506-2.76 1.987 0 3.331.993 3.507 2.584h-1.441c-.176-.835-.976-1.345-2.092-1.345-1.213 0-1.995.563-1.995 1.433 0 .729.492 1.142 1.687 1.406l1.345.308c1.855.421 2.698 1.23 2.698 2.61 0 1.758-1.467 2.9-3.726 2.9-2.162 0-3.595-1.01-3.762-2.645h1.52c.22.879 1.064 1.388 2.295 1.388 1.3 0 2.126-.588 2.126-1.502 0-.756-.465-1.161-1.678-1.433l-1.415-.325c-1.723-.396-2.575-1.266-2.575-2.619Zm10.53 0c0-1.653 1.407-2.76 3.508-2.76 1.986 0 3.33.993 3.507 2.584h-1.442c-.176-.835-.975-1.345-2.092-1.345-1.213 0-1.995.563-1.995 1.433 0 .729.492 1.142 1.688 1.406l1.344.308c1.855.421 2.699 1.23 2.699 2.61 0 1.758-1.468 2.9-3.727 2.9-2.162 0-3.595-1.01-3.762-2.645h1.52c.22.879 1.064 1.388 2.295 1.388 1.3 0 2.127-.588 2.127-1.502 0-.756-.466-1.161-1.679-1.433L74 142.335c-1.723-.396-2.575-1.266-2.575-2.619Zm16.58 4.5h1.45c-.29 1.573-1.802 2.636-3.806 2.636-2.62 0-4.14-1.573-4.14-4.289v-1.432c0-2.514 1.608-4.166 4.034-4.166 2.479 0 3.938 1.643 3.938 4.403v.932h-6.495v.386c0 1.749 1.037 2.874 2.663 2.874 1.204 0 2.092-.509 2.355-1.344Zm-2.47-5.968c-1.591 0-2.55 1.09-2.55 2.918h5.02c0-1.82-.933-2.918-2.47-2.918Zm8.8-3.665h1.476v2.584h3.867v1.274h-3.85v5.379c0 1.037.73 1.6 2.075 1.6.536 0 1.494-.027 1.749-.053v1.266c-.238.044-1.398.087-1.855.087-2.364 0-3.463-.896-3.463-2.882v-5.397h-2.54v-1.274h2.54v-2.584Zm12.157 5.396c-.87 0-1.591-.738-1.591-1.626 0-.887.721-1.626 1.591-1.626s1.59.739 1.59 1.626c0 .888-.72 1.626-1.59 1.626Zm0 6.75c-.87 0-1.591-.729-1.591-1.626 0-.887.721-1.617 1.591-1.617s1.59.73 1.59 1.617c0 .897-.72 1.626-1.59 1.626Z" fill="#61BAEF"/><path d="M94.043 30.33c0-2.979.897-5.571 2.646-7.558h1.485c-1.82 2.558-2.584 4.799-2.584 7.559s.765 5 2.584 7.558H96.69c-1.75-1.986-2.646-4.57-2.646-7.558Zm56.401 20.664h1.327l-1.072 5.722h-1.819l1.564-5.722Zm-3.392 0h1.327l-1.072 5.722h-1.82l1.565-5.722Zm12.262.809c-.703 0-1.239-.528-1.239-1.231 0-.694.536-1.222 1.239-1.222.704 0 1.24.528 1.24 1.222 0 .703-.536 1.23-1.24 1.23Zm4 11.873h-7.902v-1.239h3.27V55.38h-3.243v-1.24h4.719v8.297h3.156v1.24Zm4.739-12.093h1.476v2.584h3.868v1.274h-3.85v5.38c0 1.036.73 1.599 2.074 1.599.536 0 1.494-.027 1.749-.053v1.266c-.237.043-1.397.087-1.854.087-2.364 0-3.463-.896-3.463-2.882V55.44h-2.54v-1.274h2.54v-2.584Zm14.732 9.633h1.451c-.29 1.573-1.802 2.636-3.806 2.636-2.619 0-4.14-1.573-4.14-4.289v-1.432c0-2.514 1.609-4.166 4.034-4.166 2.479 0 3.938 1.643 3.938 4.403v.932h-6.495v.386c0 1.75 1.037 2.874 2.663 2.874 1.204 0 2.092-.51 2.355-1.344Zm-2.469-5.968c-1.591 0-2.549 1.09-2.549 2.918h5.018c0-1.82-.931-2.918-2.469-2.918Zm15.022 1.406v7.022h-1.344v-6.583c0-1.16-.422-1.766-1.222-1.766-.835 0-1.345.73-1.345 1.916v6.433h-1.336v-6.591c0-1.152-.422-1.758-1.23-1.758-.844 0-1.371.73-1.371 1.916v6.433h-1.345V54.14h1.336v1.345h.158c.237-.958.923-1.52 1.819-1.52.897 0 1.53.553 1.732 1.494h.158c.246-.914 1.011-1.494 1.969-1.494 1.327 0 2.021.922 2.021 2.69Zm5.935.325c-.87 0-1.591-.738-1.591-1.626 0-.887.721-1.626 1.591-1.626s1.591.739 1.591 1.626c0 .888-.721 1.626-1.591 1.626Zm0 6.75c-.87 0-1.591-.73-1.591-1.626 0-.887.721-1.617 1.591-1.617s1.591.73 1.591 1.617c0 .897-.721 1.626-1.591 1.626Zm15.128-7.075v7.022h-1.345v-6.583c0-1.16-.422-1.766-1.221-1.766-.835 0-1.345.73-1.345 1.916v6.433h-1.336v-6.591c0-1.152-.422-1.758-1.231-1.758-.843 0-1.371.73-1.371 1.916v6.433h-1.344V54.14h1.336v1.345h.158c.237-.958.923-1.52 1.819-1.52.897 0 1.529.553 1.732 1.494h.158c.246-.914 1.01-1.494 1.969-1.494 1.327 0 2.021.922 2.021 2.69Zm5.935 7.198c-2.523 0-4.131-1.643-4.131-4.218v-1.442c0-2.575 1.608-4.219 4.131-4.219 2.522 0 4.131 1.644 4.131 4.22v1.44c0 2.576-1.609 4.22-4.131 4.22Zm0-8.56c-1.635 0-2.655 1.16-2.655 3.032v1.169c0 1.88 1.02 3.032 2.655 3.032 1.634 0 2.654-1.151 2.654-3.032v-1.169c0-1.872-1.02-3.032-2.654-3.032Zm6.629 8.384V54.14h1.432v1.68h.123c.51-1.187 1.6-1.855 3.05-1.855 2.074 0 3.199 1.239 3.199 3.524v6.188h-1.494v-5.81c0-1.723-.703-2.531-2.188-2.531-1.573 0-2.628 1.098-2.628 2.724v5.616h-1.494Zm12.807-12.093h1.477v2.584h3.867v1.274h-3.849v5.38c0 1.036.729 1.599 2.074 1.599.536 0 1.494-.027 1.749-.053v1.266c-.237.043-1.398.087-1.855.087-2.364 0-3.463-.896-3.463-2.882V55.44h-2.54v-1.274h2.54v-2.584Zm8.247 12.093v-13.28h1.441v5.432h.123c.501-1.187 1.6-1.855 3.059-1.855 2.074 0 3.199 1.248 3.199 3.525v6.178h-1.494v-5.8c0-1.714-.703-2.532-2.197-2.532-1.574 0-2.637 1.1-2.637 2.725v5.607h-1.494Zm18.608 0h-7.901v-1.239h3.261V51.636h-3.235v-1.24h4.729v12.041h3.146v1.24Zm3.694 3.393c-.22 0-.51-.009-.642-.026v-1.31c.114.026.387.035.527.035.897 0 1.389-.404 1.785-1.511l.167-.519-3.507-9.598h1.626l2.672 7.98h.114l2.663-7.98h1.591l-3.595 9.888c-.835 2.347-1.635 3.041-3.401 3.041Zm17.764-.65h-9.123v-1.292h9.123v1.292Zm6.568-12.437c2.206 0 3.647 1.591 3.647 4.043v1.776c0 2.443-1.441 4.034-3.647 4.034-1.38 0-2.391-.59-2.804-1.635h-.167v4.693h-1.52V54.14h1.476v1.46h.158c.501-1.055 1.495-1.618 2.857-1.618Zm-.431 1.371c-1.573 0-2.575 1.125-2.575 2.883v1.371c0 1.767 1.002 2.892 2.575 2.892 1.573 0 2.575-1.134 2.575-2.892v-1.37c0-1.759-1.002-2.884-2.575-2.884Zm9.987 4.052v3.076h2.953v1.195h-6.337v-1.195h1.925v-7.145h-2.118V54.14h3.559v2.435h.193c.352-1.767 1.539-2.68 3.375-2.68.545 0 1.064.078 1.38.21v1.679a5.039 5.039 0 0 0-1.573-.264c-2.109 0-3.357 1.46-3.357 3.885Zm13.484 1.81h1.45c-.29 1.574-1.801 2.637-3.805 2.637-2.619 0-4.14-1.573-4.14-4.289v-1.432c0-2.514 1.608-4.166 4.034-4.166 2.479 0 3.938 1.643 3.938 4.403v.932h-6.495v.386c0 1.75 1.037 2.874 2.663 2.874 1.204 0 2.091-.51 2.355-1.344Zm-2.47-5.967c-1.59 0-2.548 1.09-2.548 2.918h5.018c0-1.82-.931-2.918-2.47-2.918Zm15.023 1.406v7.022h-1.345v-6.583c0-1.16-.422-1.766-1.221-1.766-.835 0-1.345.73-1.345 1.916v6.433h-1.336v-6.591c0-1.152-.422-1.758-1.231-1.758-.843 0-1.371.73-1.371 1.916v6.433h-1.344V54.14h1.336v1.345h.158c.237-.958.923-1.52 1.819-1.52.897 0 1.529.553 1.732 1.494h.158c.246-.914 1.011-1.494 1.969-1.494 1.327 0 2.021.922 2.021 2.69Zm6.102-4.852c-.703 0-1.24-.527-1.24-1.23 0-.694.537-1.222 1.24-1.222s1.239.528 1.239 1.222c0 .703-.536 1.23-1.239 1.23Zm3.999 11.874h-7.902v-1.239h3.27V55.38h-3.243v-1.24h4.719v8.297h3.156v1.24Zm10.267-9.536v9.536h-1.432v-1.678h-.123c-.51 1.186-1.6 1.854-3.05 1.854-2.074 0-3.199-1.239-3.199-3.524V54.14h1.494v5.81c0 1.723.703 2.531 2.188 2.531 1.574 0 2.628-1.098 2.628-2.724V54.14h1.494Zm11.226 2.514v7.022h-1.345v-6.583c0-1.16-.422-1.766-1.221-1.766-.835 0-1.345.73-1.345 1.916v6.433h-1.336v-6.591c0-1.152-.422-1.758-1.23-1.758-.844 0-1.372.73-1.372 1.916v6.433h-1.344V54.14h1.336v1.345h.158c.237-.958.923-1.52 1.819-1.52.897 0 1.53.553 1.732 1.494h.158c.246-.914 1.011-1.494 1.969-1.494 1.327 0 2.021.922 2.021 2.69Zm4.036-.105h-1.327l1.072-5.722h1.811l-1.556 5.722Zm3.393 0h-1.327l1.072-5.722h1.811l-1.556 5.722Zm8.237 10.045h-1.415l1.09-5.712h1.978l-1.653 5.712Zm-229.062 12.4h1.327l-1.072 5.722h-1.819l1.564-5.722Zm-3.392 0h1.327l-1.072 5.722h-1.82l1.565-5.722Zm12.693 2.988c2.206 0 3.648 1.591 3.648 4.043V87.8c0 2.444-1.442 4.035-3.648 4.035-1.38 0-2.39-.59-2.804-1.635h-.167v4.693h-1.52V82.14h1.476v1.46h.159c.501-1.055 1.494-1.618 2.856-1.618Zm-.431 1.371c-1.573 0-2.575 1.125-2.575 2.883v1.371c0 1.767 1.002 2.892 2.575 2.892 1.574 0 2.576-1.134 2.576-2.892v-1.37c0-1.759-1.002-2.884-2.576-2.884Zm9.398 8.49c-1.819 0-3.032-1.142-3.032-2.874 0-1.687 1.213-2.689 3.384-2.803l2.619-.132v-.861c0-1.196-.73-1.855-2.057-1.855-1.099 0-1.872.466-2.118 1.283h-1.468c.176-1.529 1.653-2.575 3.604-2.575 2.241 0 3.524 1.143 3.524 3.129v6.53h-1.424v-1.432h-.149c-.457 1.02-1.494 1.59-2.883 1.59Zm.431-1.31c1.441 0 2.54-.957 2.54-2.231v-1.126l-2.452.115c-1.336.061-2.039.633-2.039 1.626 0 1.002.747 1.617 1.951 1.617Zm11.234-10.73c-.703 0-1.239-.528-1.239-1.231 0-.694.536-1.222 1.239-1.222.703 0 1.239.528 1.239 1.222 0 .703-.536 1.23-1.239 1.23Zm3.999 11.874h-7.901v-1.24h3.269V83.38h-3.243v-1.24h4.72v8.297h3.155v1.24Zm5.768.158c-2.206 0-3.648-1.591-3.648-4.043v-1.776c0-2.443 1.442-4.034 3.648-4.034 1.38 0 2.399.589 2.812 1.635h.159v-5.22h1.52v13.28h-1.468v-1.46H193c-.492 1.055-1.494 1.618-2.856 1.618Zm.439-1.363c1.565 0 2.576-1.125 2.576-2.891V86.21c0-1.758-1.011-2.883-2.576-2.883-1.573 0-2.584 1.125-2.584 2.883v1.37c0 1.759 1.011 2.892 2.584 2.892Zm8.792-5.923h-1.328l1.073-5.722h1.81l-1.555 5.722Zm3.392 0h-1.327l1.072-5.722h1.811l-1.556 5.722Zm8.238 10.045h-1.416l1.09-5.712h1.978l-1.652 5.712Zm-60.561 11.4h1.327l-1.072 5.722h-1.819l1.564-5.722Zm-3.392 0h1.327l-1.072 5.722h-1.82l1.565-5.722Zm10.549 6.803v-1.301h1.379c1.424 0 2.417-.932 2.417-2.259 0-1.292-.949-2.144-2.381-2.144-1.424 0-2.373.834-2.496 2.197h-1.486c.15-2.197 1.696-3.56 4.043-3.56 2.268 0 3.885 1.363 3.885 3.287 0 1.53-.8 2.619-2.162 2.953v.141c1.687.22 2.689 1.406 2.689 3.138 0 2.153-1.81 3.691-4.342 3.691-2.504 0-4.245-1.441-4.359-3.63h1.468c.141 1.354 1.266 2.233 2.848 2.233 1.74 0 2.821-.897 2.821-2.329 0-1.477-1.116-2.417-2.874-2.417h-1.45Zm12.078 5.932c-.87 0-1.591-.729-1.591-1.626 0-.887.721-1.617 1.591-1.617s1.591.73 1.591 1.617c0 .897-.721 1.626-1.591 1.626Zm6.198-8.666c0-2.513 1.811-4.333 4.316-4.333s4.306 1.802 4.306 4.333c0 1.442-.509 2.786-1.758 4.597-.114.193-2.742 3.885-2.838 4.017h-1.776l3.454-4.755c.29-.396.352-.51.431-.651l-.132-.07c-.378.51-1.274.888-2.074.888-2.268 0-3.929-1.705-3.929-4.026Zm4.307-2.953c-1.591 0-2.804 1.248-2.804 2.874 0 1.635 1.213 2.883 2.804 2.883 1.599 0 2.812-1.248 2.812-2.883 0-1.626-1.213-2.874-2.812-2.874Zm6.225 2.953c0-2.513 1.81-4.333 4.315-4.333 2.505 0 4.307 1.802 4.307 4.333 0 1.442-.51 2.786-1.758 4.597-.114.193-2.742 3.885-2.839 4.017h-1.775l3.454-4.755c.29-.396.351-.51.43-.651l-.132-.07c-.377.51-1.274.888-2.074.888-2.267 0-3.928-1.705-3.928-4.026Zm4.306-2.953c-1.591 0-2.804 1.248-2.804 2.874 0 1.635 1.213 2.883 2.804 2.883 1.6 0 2.813-1.248 2.813-2.883 0-1.626-1.213-2.874-2.813-2.874Zm8.66 4.439h-1.328l1.073-5.722h1.81l-1.555 5.722Zm3.392 0h-1.327l1.072-5.722h1.811l-1.556 5.722Zm8.238 10.045h-1.416l1.09-5.712h1.978l-1.652 5.712Zm-60.561 12.4h1.327l-1.072 5.722h-1.819l1.564-5.722Zm-3.392 0h1.327l-1.072 5.722h-1.82l1.565-5.722Zm12.095 11.478c1.846 0 2.918-1.212 2.918-3.295v-8.183h1.547v8.279c0 2.918-1.67 4.667-4.465 4.667-2.794 0-4.464-1.749-4.464-4.667v-8.279h1.547v8.183c0 2.083 1.072 3.295 2.917 3.295Zm6.19-2.17h1.512c.158 1.388 1.274 2.232 2.962 2.232 1.687 0 2.795-.879 2.795-2.241 0-1.099-.739-1.758-2.453-2.18l-1.089-.272c-2.356-.598-3.419-1.714-3.419-3.551 0-2.162 1.626-3.56 4.157-3.56 2.391 0 4.034 1.38 4.14 3.489h-1.512c-.158-1.309-1.125-2.083-2.619-2.083-1.626 0-2.602.774-2.602 2.066 0 1.099.703 1.731 2.356 2.144l1.107.282c2.461.606 3.498 1.678 3.498 3.586 0 2.276-1.714 3.726-4.368 3.726-2.619 0-4.333-1.388-4.465-3.638Zm10.716-9.308h3.551c3.595 0 5.405 2.118 5.405 6.319 0 4.237-1.81 6.364-5.405 6.364h-3.551v-12.683Zm1.556 1.424v9.835h1.854c2.69 0 3.964-1.574 3.964-4.931 0-3.322-1.283-4.904-3.964-4.904h-1.854Zm13.906 11.259h-1.547v-11.259h-3.832v-1.424h9.211v1.424h-3.832v11.259Zm7.86-7.128h-1.328l1.073-5.722h1.81l-1.555 5.722Zm3.392 0h-1.327l1.072-5.722h1.811l-1.556 5.722ZM24.156 167.331c0 2.988-.897 5.572-2.646 7.558h-1.485c1.82-2.557 2.584-4.798 2.584-7.558s-.765-5.001-2.584-7.559h1.485c1.75 1.987 2.646 4.579 2.646 7.559Z" fill="#fff"/></svg>