<svg width="56" height="56" fill="none" xmlns="http://www.w3.org/2000/svg"><rect width="56" height="56" rx="28" fill="url(#a)"/><path fill-rule="evenodd" clip-rule="evenodd" d="M41.355 21.107c-1.114-1.092-2.291-2.246-3.33-3.177l-.105-.074a2.006 2.006 0 0 0-.584-.33l-.802-.15c-5.53-1.043-23.46-4.42-23.83-4.376a.732.732 0 0 0-.304.117l-.1.08a1.186 1.186 0 0 0-.274.446l-.026.07v.435c1.217 3.423 4.38 11.067 7.299 18.124 2.468 5.967 4.764 11.515 5.564 13.74.105.33.305.956.678.988h.084c.2 0 1.053-1.137 1.053-1.137S41.913 27.206 43.454 25.22c.2-.245.376-.508.526-.786a1.287 1.287 0 0 0-.415-1.19 130.233 130.233 0 0 1-2.21-2.135ZM31 25l6.303-5L41 23.259 31 25Zm-14-9 11.125 9L35 19.277 17 16Zm11.629 11.872L40 26 27 42l1.629-14.128ZM27 27.154 15 17l10.264 25L27 27.154Z" fill="#fff"/><defs><linearGradient id="a" x1="36.654" y1="8.145" x2="0" y2="83.491" gradientUnits="userSpaceOnUse"><stop stop-color="#FC070C"/><stop offset="1" stop-color="#F45C43"/></linearGradient></defs></svg>