<svg width="56" height="56" fill="none" xmlns="http://www.w3.org/2000/svg"><rect width="56" height="56" rx="28" fill="url(#a)"/><g fill="#fff"><path d="M36 32.772c0-4.212-2.508-5.656-7.522-6.257-3.583-.482-4.299-1.444-4.299-3.13 0-1.684 1.194-2.767 3.582-2.767 2.15 0 3.344.722 3.94 2.527.12.361.478.602.836.602h1.91a.82.82 0 0 0 .837-.842v-.12c-.478-2.648-2.627-4.694-5.374-4.934v-2.888c0-.482-.358-.843-.955-.963h-1.79c-.479 0-.837.361-.956.963v2.767c-3.582.482-5.85 2.888-5.85 5.897 0 3.97 2.387 5.535 7.402 6.137 3.344.601 4.418 1.323 4.418 3.249 0 1.925-1.672 3.248-3.94 3.248-3.105 0-4.18-1.323-4.538-3.128-.119-.481-.477-.722-.835-.722h-2.03a.82.82 0 0 0-.836.842v.12c.477 3.009 2.388 5.175 6.328 5.777v2.887c0 .482.358.843.955.963h1.791c.478 0 .836-.361.956-.963V39.15c3.582-.602 5.97-3.13 5.97-6.378Z"/><path fill-rule="evenodd" clip-rule="evenodd" d="M11.781 22.389c-3.424 9.156 1.3 19.502 10.51 22.831.355.238.709.714.709 1.07v1.666c0 .237 0 .356-.118.475-.118.476-.59.714-1.063.476-6.613-2.14-11.691-7.254-13.817-13.913C4.46 23.697 10.6 11.686 21.82 8.119 21.937 8 22.173 8 22.292 8c.472.119.708.475.708.951v1.665c0 .595-.236.952-.709 1.19-4.841 1.783-8.738 5.588-10.51 10.583ZM34.118 8.567c.118-.474.59-.711 1.063-.474a21.462 21.462 0 0 1 13.817 13.991C52.54 33.35 46.4 45.325 35.18 48.882c-.118.118-.354.118-.472.118-.473-.118-.709-.474-.709-.949v-1.66c0-.592.236-.948.709-1.185 4.841-1.779 8.738-5.573 10.51-10.553 3.424-9.13-1.3-19.446-10.51-22.765-.355-.238-.709-.712-.709-1.186v-1.66c0-.238 0-.356.118-.475Z"/></g><defs><linearGradient id="a" x1="31.055" y1="22.909" x2="-22.4" y2="102.327" gradientUnits="userSpaceOnUse"><stop stop-color="#2775CA"/><stop offset="1" stop-color="#00BBF9"/></linearGradient></defs></svg>