<svg width="56" height="56" fill="none" xmlns="http://www.w3.org/2000/svg"><rect width="56" height="56" rx="28" fill="url(#a)"/><path d="M42 13H15v6.478h10.24V29h6.52v-9.522H42V13Z" fill="#fff"/><path d="M28 30.237c-8.361 0-15.14-1.315-15.14-2.938 0-1.623 6.779-2.938 15.14-2.938s15.14 1.315 15.14 2.938c0 1.623-6.779 2.938-15.14 2.938Zm17-2.448C45 25.696 37.389 24 28 24c-9.388 0-17 1.696-17 3.789 0 1.842 5.902 3.377 13.723 3.718V45h6.433V31.512C39.035 31.182 45 29.641 45 27.789Z" fill="#fff"/><defs><linearGradient id="a" x1="5.345" y1="76.873" x2="33.091" y2="17.818" gradientUnits="userSpaceOnUse"><stop stop-color="#8DDAD5"/><stop offset="1" stop-color="#1BA27A"/></linearGradient></defs></svg>