<svg width="118" height="111" fill="none" xmlns="http://www.w3.org/2000/svg"><path d="M104.919 0H12.531v22.304h35.042v32.783h22.304V22.304h35.042V0Z" fill="#fff"/><path d="M58.938 58.58c-28.988 0-52.49-4.587-52.49-10.247s23.5-10.248 52.49-10.248c28.987 0 52.488 4.588 52.488 10.248 0 5.66-23.5 10.247-52.488 10.247Zm58.936-8.54c0-7.297-26.386-13.213-58.936-13.213S0 42.743 0 50.041c0 6.427 20.461 11.781 47.575 12.968v47.061h22.302V63.027c27.322-1.149 47.997-6.526 47.997-12.986Z" fill="#fff"/></svg>