<svg width="103" height="135" fill="none" xmlns="http://www.w3.org/2000/svg"><path d="M101.939 54.776c2.105-14.097-8.631-21.671-23.322-26.729l4.759-19.103-11.622-2.896-4.632 18.594a454.147 454.147 0 0 0-9.309-2.188l4.663-18.717L50.854.842l-4.763 19.085c-2.53-.578-5.017-1.145-7.427-1.745l.014-.058-16.029-4.002-3.093 12.418s8.628 1.975 8.44 2.094c4.714 1.174 5.563 4.286 5.42 6.757l-5.421 21.76c.329.082.744.202 1.205.387l-1.226-.305-7.602 30.483c-.575 1.43-2.035 3.572-5.327 2.76.115.17-8.447-2.103-8.447-2.103l-5.77 13.305 15.135 3.771c2.813.7 5.572 1.44 8.282 2.133l-4.804 19.32 11.614 2.893 4.761-19.112a459.81 459.81 0 0 0 9.264 2.404l-4.747 19.019 11.622 2.895 4.802-19.276c19.822 3.75 34.743 2.236 41.01-15.698 5.056-14.436-.25-22.77-10.681-28.2 7.605-1.738 13.33-6.731 14.853-17.051ZM75.381 92.022c-3.596 14.433-27.904 6.639-35.792 4.674l6.378-25.6c7.883 1.981 33.163 5.877 29.414 20.926Zm3.584-37.459c-3.272 13.134-23.518 6.457-30.083 4.83l5.781-23.207c6.572 1.637 27.72 4.687 24.302 18.377Z" fill="#fff"/></svg>