<svg width="56" height="56" fill="none" xmlns="http://www.w3.org/2000/svg"><rect width="56" height="56" rx="28" fill="url('#a')"/><rect width="56" height="56" rx="28" fill="url('#b')"/><path d="m27.257 10-.257.858v24.89l.257.252L39 29.17 27.257 10Z" fill="#343434"/><path d="M27 10 16 29.17 27 36V10Z" fill="#8C8C8C"/><path d="m27.146 37.708-.146.17v8.714l.146.408L39 31l-11.854 6.708Z" fill="#3C3C3B"/><path d="M27 47v-9.292L16 31l11 16Z" fill="#8C8C8C"/><path d="m27 36 11-6.784L27 24v12Z" fill="#141414"/><path d="M16 29.216 27 36V24l-11 5.216Z" fill="#393939"/><defs><linearGradient id="a" x1="86.036" y1="-22.909" x2="-21.891" y2="85.018" gradientUnits="userSpaceOnUse"><stop stop-color="#E9E9E7"/><stop offset=".272" stop-color="#EFEEEC"/><stop offset=".609" stop-color="#EEEEEC"/><stop offset="1" stop-color="#D5D4D0"/></linearGradient><linearGradient id="b" x1="-1.066" y1="104.399" x2="64.786" y2="90.17" gradientUnits="userSpaceOnUse"><stop stop-color="#EEEDF1"/><stop offset="1" stop-color="#fff"/></linearGradient></defs></svg>