<svg width="64" height="64" fill="none" xmlns="http://www.w3.org/2000/svg"><g clip-path="url('#a')"><path d="M0 0h64v64H0V0Z" fill="#44A3DD"/><path d="M12.5 23h13.176c.99 0 1.9.541 2.373 1.41L39.779 46H24.083a2.7 2.7 0 0 1-2.373-1.41L11.182 25.215A1.5 1.5 0 0 1 12.5 23Z" fill="#BEE5F7"/><path d="M51.59 23a1.5 1.5 0 0 1 1.353 2.15l-.034.066L42.382 44.59A2.7 2.7 0 0 1 40.105 46l-.096.001H24.082l-.096-.002a2.699 2.699 0 0 1-1.377-.435c.203.116.432.191.677.213.026.003.236.022.47-.04.099-.027.463-.112.85-.473.115-.108.277-.34.484-.697l10.953-20.155A2.7 2.7 0 0 1 38.32 23l.095-.001h13.176Z" fill="#fff"/></g><defs><clipPath id="a"><rect width="64" height="64" rx="16" fill="#fff"/></clipPath></defs></svg>