<svg width="97" height="96" fill="none" xmlns="http://www.w3.org/2000/svg"><g clip-path="url('#clip0_955_3996')"><path d="M48.571 90.805c23.64 0 42.805-19.165 42.805-42.805S72.212 5.195 48.571 5.195C24.931 5.195 5.767 24.36 5.767 48S24.93 90.805 48.57 90.805Z" fill="#fff"/><path d="M48.571 0a48 48 0 1 0 48 48 47.861 47.861 0 0 0-47.72-48h-.28Zm.814 49.627L44.387 66.48h26.731a1.35 1.35 0 0 1 1.395 1.302v.442l-2.324 8.02a1.732 1.732 0 0 1-1.744 1.278h-40.91l6.857-23.361-7.67 2.324 1.743-5.346 7.67-2.324 9.647-32.775a1.755 1.755 0 0 1 1.743-1.279H57.87a1.348 1.348 0 0 1 1.395 1.302v.442l-8.136 27.66 7.67-2.324-1.626 5.579-7.787 2.208Z" fill="url('#paint0_linear_955_3996')"/></g><defs><linearGradient id="paint0_linear_955_3996" x1="16.571" y1="-2.5" x2="76.071" y2="102" gradientUnits="userSpaceOnUse"><stop stop-color="#3F68A8"/><stop offset="1" stop-color="#2C5493"/></linearGradient><clipPath id="clip0_955_3996"><path fill="#fff" transform="translate(.571)" d="M0 0h96v96H0z"/></clipPath></defs></svg>