<svg width="56" height="56" fill="none" xmlns="http://www.w3.org/2000/svg"><g clip-path="url('#a')"><path d="M28 52.97c13.79 0 24.97-11.18 24.97-24.97S41.79 3.03 28 3.03 3.03 14.21 3.03 28 14.21 52.97 28 52.97Z" fill="#fff"/><g filter="url('#b')"><path d="M28 0a28 28 0 1 0 28 28A27.918 27.918 0 0 0 28.163 0H28Zm.475 28.95-2.916 9.83h15.594a.785.785 0 0 1 .813.759v.258l-1.356 4.678a1.01 1.01 0 0 1-1.017.745H15.73l4-13.627-4.475 1.356 1.017-3.118 4.475-1.356 5.627-19.12a1.023 1.023 0 0 1 1.017-.745h6.034a.787.787 0 0 1 .813.76v.257l-4.746 16.136 4.475-1.356-.949 3.254-4.542 1.288Z" fill="url('#c')"/></g></g><defs><linearGradient id="c" x1="9.333" y1="-1.458" x2="44.042" y2="59.5" gradientUnits="userSpaceOnUse"><stop stop-color="#3F68A8"/><stop offset="1" stop-color="#2C5493"/></linearGradient><clipPath id="a"><path fill="#fff" d="M0 0h56v56H0z"/></clipPath><filter id="b" x="-4.381" y="-4.381" width="64.762" height="64.762" filterUnits="userSpaceOnUse" color-interpolation-filters="sRGB"><feFlood flood-opacity="0" result="BackgroundImageFix"/><feColorMatrix in="SourceAlpha" values="0 0 0 0 0 0 0 0 0 0 0 0 0 0 0 0 0 0 127 0" result="hardAlpha"/><feOffset/><feGaussianBlur stdDeviation="2.19"/><feComposite in2="hardAlpha" operator="out"/><feColorMatrix values="0 0 0 0 0.715625 0 0 0 0 0.728516 0 0 0 0 0.75 0 0 0 0.04 0"/><feBlend in2="BackgroundImageFix" result="effect1_dropShadow_955_5692"/><feColorMatrix in="SourceAlpha" values="0 0 0 0 0 0 0 0 0 0 0 0 0 0 0 0 0 0 127 0" result="hardAlpha"/><feOffset dy="1.095"/><feGaussianBlur stdDeviation=".821"/><feComposite in2="hardAlpha" operator="out"/><feColorMatrix values="0 0 0 0 0 0 0 0 0 0 0 0 0 0 0 0 0 0 0.02 0"/><feBlend in2="effect1_dropShadow_955_5692" result="effect2_dropShadow_955_5692"/><feBlend in="SourceGraphic" in2="effect2_dropShadow_955_5692" result="shape"/></filter></defs></svg>