<svg width="395" height="89" fill="none" xmlns="http://www.w3.org/2000/svg"><rect width="394.279" height="88.353" rx="20" fill="#0D0D12"/><path d="M21.273 36.843c-1.82 0-3.032-1.142-3.032-2.874 0-1.687 1.213-2.689 3.384-2.803l2.619-.132v-.861c0-1.196-.73-1.855-2.057-1.855-1.099 0-1.872.466-2.118 1.283H18.6c.176-1.529 1.652-2.575 3.604-2.575 2.24 0 3.524 1.143 3.524 3.129v6.53h-1.424v-1.432h-.15c-.456 1.02-1.493 1.59-2.882 1.59Zm.43-1.31c1.442 0 2.54-.957 2.54-2.232v-1.125l-2.451.115c-1.336.061-2.04.633-2.04 1.626 0 1.002.748 1.617 1.952 1.617Zm7.596-5.817c0-1.653 1.407-2.76 3.507-2.76 1.987 0 3.331.993 3.507 2.584h-1.441c-.176-.835-.976-1.345-2.092-1.345-1.213 0-1.995.563-1.995 1.433 0 .73.492 1.142 1.687 1.406l1.345.308c1.855.421 2.698 1.23 2.698 2.61 0 1.758-1.468 2.9-3.726 2.9-2.162 0-3.595-1.01-3.762-2.645h1.52c.22.879 1.064 1.389 2.294 1.389 1.301 0 2.127-.59 2.127-1.503 0-.756-.465-1.16-1.678-1.433l-1.415-.325c-1.723-.396-2.576-1.266-2.576-2.62Zm10.532 0c0-1.653 1.406-2.76 3.507-2.76 1.986 0 3.33.993 3.506 2.584h-1.44c-.177-.835-.977-1.345-2.093-1.345-1.213 0-1.995.563-1.995 1.433 0 .73.492 1.142 1.688 1.406l1.344.308c1.855.421 2.699 1.23 2.699 2.61 0 1.758-1.468 2.9-3.727 2.9-2.162 0-3.595-1.01-3.762-2.645h1.52c.22.879 1.064 1.389 2.295 1.389 1.3 0 2.127-.59 2.127-1.503 0-.756-.466-1.16-1.679-1.433l-1.415-.325c-1.723-.396-2.575-1.266-2.575-2.62Zm16.578 4.5h1.45c-.29 1.573-1.802 2.636-3.805 2.636-2.62 0-4.14-1.573-4.14-4.289v-1.432c0-2.514 1.608-4.166 4.034-4.166 2.479 0 3.938 1.643 3.938 4.403v.932H51.39v.386c0 1.75 1.037 2.874 2.663 2.874 1.204 0 2.091-.51 2.355-1.344Zm-2.47-5.968c-1.59 0-2.548 1.09-2.548 2.918h5.018c0-1.82-.932-2.918-2.47-2.918Zm8.8-3.665h1.477v2.584h3.867v1.274h-3.85v5.38c0 1.036.73 1.599 2.075 1.599.536 0 1.494-.027 1.749-.053v1.266c-.238.043-1.398.087-1.855.087-2.364 0-3.463-.896-3.463-2.882V28.44H60.2v-1.274h2.54v-2.584Zm63.848 12.26c-1.82 0-3.033-1.142-3.033-2.874 0-1.687 1.213-2.689 3.384-2.803l2.619-.132v-.861c0-1.196-.729-1.855-2.056-1.855-1.099 0-1.872.466-2.119 1.283h-1.467c.176-1.529 1.652-2.575 3.603-2.575 2.241 0 3.525 1.143 3.525 3.129v6.53h-1.424v-1.432h-.15c-.457 1.02-1.494 1.59-2.882 1.59Zm.43-1.31c1.442 0 2.54-.957 2.54-2.232v-1.125l-2.452.115c-1.336.061-2.039.633-2.039 1.626 0 1.002.747 1.617 1.951 1.617Zm15.664-5.879v7.022h-1.344v-6.583c0-1.16-.422-1.766-1.222-1.766-.835 0-1.345.73-1.345 1.916v6.433h-1.336v-6.591c0-1.152-.422-1.758-1.23-1.758-.844 0-1.371.73-1.371 1.916v6.433h-1.345V27.14h1.336v1.345h.158c.238-.958.923-1.52 1.82-1.52.896 0 1.529.553 1.731 1.494h.158c.246-.914 1.011-1.494 1.969-1.494 1.327 0 2.021.922 2.021 2.69Zm5.935 7.198c-2.522 0-4.131-1.643-4.131-4.218v-1.442c0-2.575 1.609-4.219 4.131-4.219 2.523 0 4.131 1.644 4.131 4.22v1.44c0 2.576-1.608 4.22-4.131 4.22Zm0-8.56c-1.635 0-2.654 1.16-2.654 3.032v1.169c0 1.88 1.019 3.032 2.654 3.032s2.654-1.151 2.654-3.032v-1.169c0-1.872-1.019-3.032-2.654-3.032Zm14.434-1.152v9.536h-1.433v-1.678h-.123c-.51 1.186-1.599 1.854-3.05 1.854-2.074 0-3.199-1.239-3.199-3.524V27.14h1.494v5.81c0 1.723.703 2.531 2.189 2.531 1.573 0 2.628-1.098 2.628-2.724V27.14h1.494Zm2.727 9.536V27.14h1.432v1.68h.123c.51-1.187 1.6-1.855 3.05-1.855 2.074 0 3.199 1.239 3.199 3.524v6.187h-1.494v-5.81c0-1.722-.703-2.53-2.188-2.53-1.574 0-2.628 1.098-2.628 2.724v5.616h-1.494Zm12.807-12.093h1.477v2.584h3.867v1.274h-3.85v5.38c0 1.036.73 1.599 2.075 1.599.536 0 1.494-.027 1.749-.053v1.266c-.238.043-1.398.087-1.855.087-2.364 0-3.463-.896-3.463-2.882V28.44h-2.54v-1.274h2.54v-2.584ZM25.667 64.88h-1.195c-2.136 0-2.812-.677-2.812-2.848v-1.969c0-1.353-.791-2.144-2.848-1.933v-1.59c2.057.21 2.848-.572 2.848-1.934v-1.968c0-2.171.676-2.848 2.812-2.848h1.195v1.204h-.958c-1.318 0-1.573.307-1.573 1.837v2.346c0 1.231-.923 2.048-2.707 2.092v.14c1.784.036 2.707.854 2.707 2.084v2.347c0 1.529.255 1.836 1.573 1.836h.959v1.205Zm6.19-8.227h-1.608v-5.66h1.608v5.66Zm3.437 0h-1.618v-5.66h1.618v5.66Zm7.042 7.19c-1.82 0-3.032-1.143-3.032-2.875 0-1.687 1.212-2.689 3.383-2.803l2.62-.132v-.861c0-1.196-.73-1.855-2.057-1.855-1.099 0-1.872.466-2.118 1.283h-1.468c.176-1.529 1.652-2.575 3.603-2.575 2.241 0 3.525 1.143 3.525 3.129v6.53h-1.424v-1.432h-.15c-.457 1.02-1.494 1.59-2.882 1.59Zm.43-1.31c1.442 0 2.54-.958 2.54-2.233v-1.125l-2.452.115c-1.336.061-2.039.633-2.039 1.626 0 1.002.747 1.617 1.951 1.617Zm7.596-5.818c0-1.653 1.406-2.76 3.507-2.76 1.986 0 3.331.993 3.507 2.584h-1.442c-.175-.835-.975-1.345-2.091-1.345-1.213 0-1.996.563-1.996 1.433 0 .73.493 1.142 1.688 1.406l1.345.308c1.854.421 2.698 1.23 2.698 2.61 0 1.758-1.468 2.9-3.727 2.9-2.162 0-3.594-1.01-3.761-2.645h1.52c.22.879 1.064 1.389 2.294 1.389 1.3 0 2.127-.59 2.127-1.503 0-.756-.466-1.16-1.679-1.433l-1.415-.325c-1.722-.396-2.575-1.266-2.575-2.62Zm10.532 0c0-1.653 1.406-2.76 3.506-2.76 1.987 0 3.331.993 3.507 2.584h-1.441c-.176-.835-.976-1.345-2.092-1.345-1.213 0-1.995.563-1.995 1.433 0 .73.492 1.142 1.687 1.406l1.345.308c1.855.421 2.698 1.23 2.698 2.61 0 1.758-1.467 2.9-3.726 2.9-2.162 0-3.595-1.01-3.762-2.645h1.52c.22.879 1.064 1.389 2.295 1.389 1.3 0 2.126-.59 2.126-1.503 0-.756-.465-1.16-1.678-1.433l-1.415-.325c-1.723-.396-2.575-1.266-2.575-2.62Zm16.578 4.5h1.45c-.29 1.573-1.802 2.636-3.806 2.636-2.619 0-4.14-1.573-4.14-4.289V58.13c0-2.514 1.609-4.166 4.035-4.166 2.478 0 3.937 1.643 3.937 4.403v.932h-6.495v.386c0 1.75 1.037 2.874 2.663 2.874 1.204 0 2.092-.51 2.356-1.344Zm-2.47-5.968c-1.59 0-2.549 1.09-2.549 2.918h5.019c0-1.82-.932-2.918-2.47-2.918Zm8.8-3.665h1.476v2.584h3.868v1.274h-3.85v5.38c0 1.036.73 1.599 2.074 1.599.536 0 1.495-.027 1.75-.053v1.266c-.238.043-1.398.087-1.855.087-2.364 0-3.463-.896-3.463-2.882V55.44h-2.54v-1.274h2.54v-2.584Zm11.243 5.071h-1.608v-5.66h1.608v5.66Zm3.437 0h-1.617v-5.66h1.617v5.66Zm8.009.325c-.87 0-1.591-.738-1.591-1.626 0-.887.721-1.626 1.591-1.626s1.59.739 1.59 1.626c0 .888-.72 1.626-1.59 1.626Zm0 6.75c-.87 0-1.591-.73-1.591-1.626 0-.887.721-1.617 1.591-1.617s1.59.73 1.59 1.617c0 .897-.72 1.626-1.59 1.626Zm62.388 2.865h-1.415l1.09-5.712h1.977l-1.652 5.712Zm20.949-9.94h-1.609v-5.66h1.609v5.66Zm3.436 0h-1.617v-5.66h1.617v5.66Zm7.042 7.19c-1.819 0-3.032-1.143-3.032-2.875 0-1.687 1.213-2.689 3.384-2.803l2.619-.132v-.861c0-1.196-.73-1.855-2.057-1.855-1.098 0-1.872.466-2.118 1.283h-1.468c.176-1.529 1.653-2.575 3.604-2.575 2.241 0 3.524 1.143 3.524 3.129v6.53h-1.424v-1.432h-.149c-.457 1.02-1.494 1.59-2.883 1.59Zm.431-1.31c1.441 0 2.54-.958 2.54-2.233v-1.125l-2.452.115c-1.336.061-2.039.633-2.039 1.626 0 1.002.747 1.617 1.951 1.617Zm15.664-5.88v7.022h-1.345v-6.583c0-1.16-.422-1.766-1.221-1.766-.835 0-1.345.73-1.345 1.916v6.433h-1.336v-6.591c0-1.152-.422-1.758-1.231-1.758-.843 0-1.371.73-1.371 1.916v6.433h-1.344V54.14h1.336v1.345h.158c.237-.958.923-1.52 1.819-1.52.897 0 1.529.553 1.732 1.494h.158c.246-.914 1.01-1.494 1.969-1.494 1.327 0 2.021.922 2.021 2.69Zm5.935 7.198c-2.523 0-4.131-1.643-4.131-4.218v-1.442c0-2.575 1.608-4.219 4.131-4.219 2.522 0 4.131 1.644 4.131 4.22v1.44c0 2.576-1.609 4.22-4.131 4.22Zm0-8.56c-1.635 0-2.655 1.16-2.655 3.032v1.169c0 1.88 1.02 3.032 2.655 3.032 1.634 0 2.654-1.151 2.654-3.032v-1.169c0-1.872-1.02-3.032-2.654-3.032Zm14.433-1.152v9.536h-1.432v-1.678h-.123c-.51 1.186-1.6 1.854-3.05 1.854-2.074 0-3.199-1.239-3.199-3.524V54.14h1.494v5.81c0 1.723.703 2.531 2.188 2.531 1.574 0 2.628-1.098 2.628-2.724V54.14h1.494Zm2.727 9.536V54.14h1.433v1.68h.123c.509-1.187 1.599-1.855 3.05-1.855 2.074 0 3.199 1.239 3.199 3.524v6.188h-1.494v-5.81c0-1.723-.704-2.531-2.189-2.531-1.573 0-2.628 1.098-2.628 2.724v5.616h-1.494Zm12.808-12.093h1.476v2.584h3.868v1.274h-3.85v5.38c0 1.036.729 1.599 2.074 1.599.536 0 1.494-.027 1.749-.053v1.266c-.237.043-1.397.087-1.854.087-2.365 0-3.463-.896-3.463-2.882V55.44h-2.54v-1.274h2.54v-2.584Zm11.243 5.071h-1.608v-5.66h1.608v5.66Zm3.437 0h-1.618v-5.66h1.618v5.66Zm8.009.325c-.871 0-1.591-.738-1.591-1.626 0-.887.72-1.626 1.591-1.626.87 0 1.59.739 1.59 1.626 0 .888-.72 1.626-1.59 1.626Zm0 6.75c-.871 0-1.591-.73-1.591-1.626 0-.887.72-1.617 1.591-1.617.87 0 1.59.73 1.59 1.617 0 .897-.72 1.626-1.59 1.626Zm80.823 1.152v-1.205h.958c1.318 0 1.573-.307 1.573-1.836v-2.347c0-1.23.923-2.048 2.707-2.083v-.14c-1.784-.045-2.707-.862-2.707-2.093V52.83c0-1.53-.255-1.837-1.573-1.837h-.958V49.79h1.195c2.136 0 2.812.677 2.812 2.848v1.968c0 1.362.792 2.145 2.848 1.934v1.59c-2.056-.21-2.848.58-2.848 1.934v1.969c0 2.17-.676 2.848-2.812 2.848h-1.195Z" fill="#fff"/><path d="M79.546 29.777h-9.299v-1.45h9.299v1.45Zm0 4.008h-9.299v-1.45h9.299v1.45Zm115.845-4.008h-9.299v-1.45h9.299v1.45Zm0 4.008h-9.299v-1.45h9.299v1.45Zm-79.283 22.87H114.5v-5.661h1.608v5.66Zm3.436 0h-1.617v-5.661h1.617v5.66Zm8.783 7.021h-1.547V52.418h-3.832v-1.424h9.211v1.424h-3.832v11.258Zm14.407-5.317c0 3.507-1.766 5.581-4.649 5.581s-4.65-2.074-4.65-5.58v-2.05c0-3.507 1.767-5.58 4.65-5.58 2.883 0 4.649 2.073 4.649 5.58v2.048Zm-4.649 4.113c1.925 0 3.085-1.476 3.085-4.122v-2.03c0-2.645-1.16-4.122-3.085-4.122S135 53.675 135 56.32v2.03c0 2.646 1.16 4.122 3.085 4.122Zm7.71 1.204h-1.398V50.994h1.486l5.431 9.87h.123v-9.87h1.398v12.682h-1.468l-5.449-9.896h-.123v9.896Zm12.438-7.022h-1.608v-5.66h1.608v5.66Zm3.437 0h-1.617v-5.66h1.617v5.66Zm133.471 0h-1.608v-5.66h1.608v5.66Zm3.437 0h-1.617v-5.66h1.617v5.66Zm3.966-2.092c0-2.232 1.652-3.832 3.964-3.832 2.329 0 3.928 1.442 3.928 3.56 0 1.318-.597 2.373-2.619 4.579l-2.988 3.252v.15h5.809v1.405h-8.024v-1.072l4.289-4.772c1.608-1.802 1.995-2.479 1.995-3.48 0-1.363-.958-2.26-2.434-2.26-1.459 0-2.426.976-2.426 2.47v.053h-1.494v-.053Zm14.574 9.167c-.87 0-1.591-.73-1.591-1.626 0-.887.721-1.617 1.591-1.617s1.591.73 1.591 1.617c0 .897-.721 1.626-1.591 1.626Zm7.49-.053 5.757-11.18v-.113h-6.882v-1.39h8.464v1.433l-5.686 11.25h-1.653Zm13.467.255c-2.364 0-4.034-1.459-4.166-3.638h1.494c.141 1.327 1.275 2.24 2.76 2.24 1.635 0 2.725-1.15 2.725-2.873 0-1.74-1.099-2.918-2.725-2.918-1.134 0-2.074.519-2.575 1.415h-1.468l.642-7.163h6.934v1.397h-5.713l-.351 4.14h.14c.625-.756 1.53-1.151 2.646-1.151 2.347 0 3.981 1.749 3.981 4.245 0 2.566-1.749 4.306-4.324 4.306Zm9.723-7.277h-1.608v-5.66h1.608v5.66Zm3.437 0h-1.618v-5.66h1.618v5.66Z" fill="#5DB0E2"/><path d="M86.201 36.676h-1.546V25.418h-3.832v-1.424h9.21v1.424h-3.832v11.258Zm14.408-5.317c0 3.507-1.767 5.581-4.65 5.581-2.883 0-4.65-2.074-4.65-5.58v-2.05c0-3.507 1.767-5.58 4.65-5.58 2.883 0 4.65 2.073 4.65 5.58v2.048Zm-4.65 4.113c1.925 0 3.085-1.476 3.085-4.122v-2.03c0-2.645-1.16-4.122-3.085-4.122s-3.085 1.477-3.085 4.122v2.03c0 2.646 1.16 4.122 3.085 4.122Zm7.71 1.204h-1.397V23.994h1.485l5.432 9.87h.123v-9.87h1.397v12.682h-1.467l-5.45-9.896h-.123v9.896Zm93.561-9.114c0-2.232 1.652-3.832 3.964-3.832 2.329 0 3.929 1.442 3.929 3.56 0 1.318-.598 2.373-2.62 4.579l-2.988 3.252v.15h5.81v1.405H197.3v-1.072l4.289-4.772c1.609-1.802 1.995-2.479 1.995-3.48 0-1.363-.958-2.26-2.434-2.26-1.459 0-2.426.976-2.426 2.47v.053h-1.494v-.053Zm14.574 9.167c-.87 0-1.591-.73-1.591-1.626 0-.887.721-1.617 1.591-1.617s1.591.73 1.591 1.617c0 .897-.721 1.626-1.591 1.626Zm7.491-.053 5.756-11.18v-.113h-6.881v-1.39h8.464v1.434l-5.687 11.25h-1.652Zm13.467.255c-2.365 0-4.035-1.459-4.166-3.638h1.494c.14 1.327 1.274 2.24 2.759 2.24 1.635 0 2.725-1.15 2.725-2.873 0-1.74-1.099-2.918-2.725-2.918-1.133 0-2.074.518-2.575 1.415h-1.467l.641-7.163h6.935v1.397h-5.713l-.352 4.14h.141c.624-.756 1.529-1.151 2.645-1.151 2.347 0 3.982 1.749 3.982 4.245 0 2.566-1.749 4.306-4.324 4.306Z" fill="#FCEF8F"/><path d="m120.432 36.676-1.011-1.3c-1.002 1.01-2.197 1.529-3.568 1.529-2.224 0-3.779-1.45-3.779-3.516 0-1.388.756-2.566 2.303-3.577l.404-.272c-.967-1.178-1.424-2.18-1.424-3.094 0-1.608 1.169-2.716 2.839-2.716 1.652 0 2.804 1.108 2.804 2.716 0 1.274-.624 2.18-2.365 3.322l2.734 3.437c.325-.765.492-1.67.527-2.848v-.079h1.274v.132c-.052 1.556-.36 2.839-.958 3.885l1.96 2.381h-1.74Zm-4.245-11.715c-.861 0-1.512.641-1.512 1.503 0 .712.334 1.388 1.213 2.443 1.371-.905 1.811-1.512 1.811-2.443 0-.862-.651-1.503-1.512-1.503Zm-1.011 5.774c-1.16.72-1.696 1.547-1.696 2.584 0 1.362.976 2.276 2.426 2.276 1.134 0 2.109-.413 2.751-1.177l-3.129-3.911-.352.228Z" fill="#D56565"/></svg>