<svg version="1.0" xmlns="http://www.w3.org/2000/svg" width="933.333" height="933.333" viewBox="0 0 700 700"><path d="M156 1.1C104 7 58 35 29.1 78.2c-12 18-21.7 42-26.3 65L.5 154.5l-.3 188C0 470.1.2 534 1 541.5c8.1 83.7 72.2 148.3 156.2 157.4 12.8 1.4 372.3 1.5 385.8.1 52.4-5.5 99.8-34.3 128.3-78 15.4-23.8 24.5-49.5 27.6-78.2 1.5-13.5 1.5-372.1 0-385.6C689.8 73.8 625.6 9.5 543.1 1.1 530.5-.2 167.3-.2 156 1.1zm139 254.5c3 1.7 6.7 4.6 8.2 6.5 1.4 1.9 12.4 21.4 24.3 43.4s22 40.4 22.5 40.8c.4.5 3.4-4 6.6-10 22.9-42.8 40-73.3 42.5-75.9 1.7-1.7 5.1-4.2 7.7-5.5l4.7-2.4 79.1-.3 79.1-.2 3.3 2.2c4.7 3.2 7.4 8.2 7.4 13.8 0 4.3-4.9 13.7-58.5 112.6-51.7 95.5-59 108.4-63.9 113.4-9.5 9.7-1.6 9.1-109.6 8.8l-93.9-.3-4.5-2.7c-2.5-1.5-5.9-4.2-7.7-6-1.8-1.9-29.1-51.1-62.2-112-57-104.8-59.1-109-59.1-114 0-4 .6-6.2 2.4-8.9 5-7.3.1-6.9 87.6-6.6l78.5.2 5.5 3.1z"/></svg>