<svg width="56" height="56" fill="none" xmlns="http://www.w3.org/2000/svg"><rect width="56" height="56" rx="28" fill="url('#a')"/><path d="M37.454 16h-18.91c-3.476 0-5.68 3.75-3.93 6.782l11.67 20.227c.761 1.321 2.67 1.321 3.431 0l11.673-20.227C43.135 19.755 40.93 16 37.457 16h-.003Zm-11.18 20.944-2.541-4.92L17.6 21.058a1.071 1.071 0 0 1 .942-1.602h7.73v17.49l.002-.001Zm12.12-15.89-6.13 10.973-2.542 4.917V19.453h7.73c.847 0 1.347.9.942 1.602Z" fill="#fff"/><defs><linearGradient id="a" x1="52.182" y1="-4.327" x2="8.145" y2="68.473" gradientUnits="userSpaceOnUse"><stop stop-color="#04BEFE"/><stop offset="1" stop-color="#4481EB"/></linearGradient></defs></svg>