<?xml version="1.0" standalone="no"?>
<!DOCTYPE svg PUBLIC "-//W3C//DTD SVG 20010904//EN"
 "http://www.w3.org/TR/2001/REC-SVG-20010904/DTD/svg10.dtd">
<svg version="1.0" xmlns="http://www.w3.org/2000/svg"
 width="700.000000pt" height="700.000000pt" viewBox="0 0 700.000000 700.000000"
 preserveAspectRatio="xMidYMid meet">
<metadata>
Created by potrace 1.14, written by Peter Selinger 2001-2017
</metadata>
<g transform="translate(0.000000,700.000000) scale(0.100000,-0.100000)"
fill="#000000" stroke="none">
<path d="M1560 6989 c-520 -59 -980 -339 -1269 -771 -120 -180 -217 -420 -263
-650 l-23 -113 -3 -1880 c-2 -1276 0 -1915 8 -1990 81 -837 722 -1483 1562
-1574 128 -14 3723 -15 3858 -1 524 55 998 343 1283 780 154 238 245 495 276
782 15 135 15 3721 0 3856 -91 834 -733 1477 -1558 1561 -126 13 -3758 13
-3871 0z m1390 -2545 c30 -17 67 -46 82 -65 14 -19 124 -214 243 -434 119
-220 220 -404 225 -408 4 -5 34 40 66 100 229 428 400 733 425 759 17 17 51
42 77 55 l47 24 791 3 791 2 33 -22 c47 -32 74 -82 74 -138 0 -43 -49 -137
-585 -1126 -517 -955 -590 -1084 -639 -1134 -95 -97 -16 -91 -1096 -88 l-939
3 -45 27 c-25 15 -59 42 -77 60 -18 19 -291 511 -622 1120 -570 1048 -591
1090 -591 1140 0 40 6 62 24 89 50 73 1 69 876 66 l785 -2 55 -31z"/>
</g>
</svg>
